<svg style="display: none;" aria-hidden="true" xmlns="http://www.w3.org/2000/svg" xmlns:xlink="http://www.w3.org/1999/xlink"><symbol viewBox="0 0 5 6" fill="none" id="svg-bc-arrow"><path d="M1 0.5L3.5 3L1 5.5" stroke="#fff"/></symbol><symbol viewBox="0 0 22 17" fill="none" id="svg-checked"><path d="M1 6.6L9.27273 15L21.2222 1" stroke="#fff" stroke-width="2"/></symbol><symbol viewBox="0 0 43 43" fill="none" id="svg-close"><path transform="rotate(45 31.112 9.9)" fill="#fff" d="M31.112 9.899H33.111999999999995V39.899H31.112z"/><path transform="rotate(135 32.526 31.113)" fill="#fff" d="M32.526 31.113H34.526V61.113H32.526z"/></symbol><symbol viewBox="0 0 30 30" fill="none" id="svg-dubai"><g clip-path="url(#dclip0_171_468)" stroke="#fff"><path d="M5.2002 2V28M5.2002 6.55078C10.4002 7.85078 16.9002 16.3008 16.9002 27.3508" stroke-width="2"/><path d="M5.2002 15H9.7502M5.2002 20.85H11.7002"/><path d="M22.0996 28H-0.000391632" stroke-width="2"/></g><defs><clipPath id="dclip0_171_468"><path fill="#fff" d="M0 0H30V30H0z"/></clipPath></defs></symbol><symbol viewBox="0 0 16 16" fill="none" id="svg-more-arrow"><path d="M7.66797.333336L7.66797 13.6667M14.334 7L7.66732 13.6667 1.00065 7" stroke="#0275DF" stroke-width="2"/></symbol><symbol viewBox="0 0 30 30" fill="none" id="svg-right-arrow"><circle cx="15" cy="15" r="14.5" stroke="var(--svg-blue)"/><path d="M8.33301 15L21.6663 15M14.9993 8.33331L21.666 15 14.9993 21.6666" stroke="var(--svg-blue)" stroke-width="2"/></symbol><symbol viewBox="0 0 28 28" fill="none" id="svg-slider-left-active-arrow"><path d="M15 27L2 14 15 1M28 14H2" stroke="var(--slider-arrow)" stroke-width="2"/></symbol><symbol viewBox="0 0 28 28" fill="none" id="svg-slider-left-arrow"><path d="M15 27L2 14 15 1M28 14H2" stroke="#565656" stroke-width="2"/></symbol><symbol viewBox="0 0 28 28" fill="none" id="svg-slider-righr-arrow"><path d="M13 1L26 14 13 27M0 14L26 14" stroke="#565656" stroke-width="2"/></symbol><symbol viewBox="0 0 28 28" fill="none" id="svg-slider-right-active-arrow"><path d="M13 1L26 14 13 27M0 14L26 14" stroke="var(--slider-arrow)" stroke-width="2"/></symbol><symbol viewBox="0 0 40 40" fill="none" id="svg-soc-linkedin"><circle cx="20" cy="20" r="19.5" stroke="#fff"/><path d="M17.1566 16.3477H14.4345C14.3137 16.3477 14.2158 16.4456 14.2158 16.5664V25.3111C14.2158 25.4319 14.3137 25.5298 14.4345 25.5298H17.1566C17.2774 25.5298 17.3753 25.4319 17.3753 25.3111V16.5664C17.3753 16.4456 17.2774 16.3477 17.1566 16.3477zM15.7962 12C14.8058 12 14 12.8049 14 13.7942 14 14.784 14.8058 15.5892 15.7962 15.5892 16.7859 15.5892 17.591 14.784 17.591 13.7942 17.591 12.8049 16.7859 12 15.7962 12zM24.0794 16.1309C22.9862 16.1309 22.178 16.6008 21.6878 17.1349V16.5669C21.6878 16.4461 21.5899 16.3482 21.4691 16.3482H18.8623C18.7414 16.3482 18.6436 16.4461 18.6436 16.5669V25.3117C18.6436 25.4325 18.7414 25.5304 18.8623 25.5304H21.5783C21.6992 25.5304 21.797 25.4325 21.797 25.3117V20.985C21.797 19.5271 22.1931 18.9591 23.2094 18.9591 24.3163 18.9591 24.4042 19.8696 24.4042 21.06V25.3117C24.4042 25.4325 24.5021 25.5304 24.6229 25.5304H27.34C27.4608 25.5304 27.5587 25.4325 27.5587 25.3117V20.5151C27.5587 18.3471 27.1453 16.1309 24.0794 16.1309z" fill="#fff"/></symbol><symbol viewBox="0 0 40 40" fill="none" id="svg-soc-telegram"><circle cx="20" cy="20" r="19.5" stroke="#fff"/><g clip-path="url(#lclip0_95_499)"><path d="M28.3764 11.7743L10.6573 18.6425C9.94427 18.9624 9.7031 19.6029 10.485 19.9505L15.0307 21.4026L26.0216 14.5748C26.6217 14.1462 27.2361 14.2605 26.7074 14.732L17.2677 23.3232L16.9712 26.959C17.2458 27.5204 17.7487 27.523 18.0695 27.244L20.6811 24.76L25.154 28.1267C26.1929 28.7449 26.7581 28.346 26.9817 27.2129L29.9154 13.2492C30.22 11.8545 29.7006 11.24 28.3764 11.7743Z" fill="#fff"/></g><defs><clipPath id="lclip0_95_499"><path fill="#fff" transform="translate(10 10)" d="M0 0H20V20H0z"/></clipPath></defs></symbol><symbol viewBox="0 0 40 40" fill="none" id="svg-soc-twitter"><circle cx="20" cy="20" r="19.5" stroke="#fff"/><path d="M27.9024 15.5374C27.6468 15.6508 27.384 15.7465 27.1155 15.8242C27.4334 15.4646 27.6758 15.0416 27.8237 14.5786C27.8569 14.4749 27.8225 14.3613 27.7372 14.2934C27.6521 14.2255 27.5337 14.2174 27.4399 14.2729C26.8696 14.6112 26.2544 14.8542 25.6092 14.9964C24.9594 14.3614 24.0768 14 23.1643 14C21.2383 14 19.6713 15.5669 19.6713 17.4929C19.6713 17.6446 19.6809 17.7954 19.6999 17.9442C17.3099 17.7343 15.088 16.5596 13.5621 14.688C13.5078 14.6212 13.424 14.5853 13.3382 14.5922C13.2524 14.5989 13.1753 14.6473 13.132 14.7217C12.8225 15.2527 12.6589 15.86 12.6589 16.4779C12.6589 17.3196 12.9594 18.1181 13.4902 18.7421C13.3288 18.6862 13.1722 18.6163 13.0227 18.5333C12.9424 18.4887 12.8445 18.4894 12.7648 18.5351C12.685 18.5808 12.635 18.6649 12.6329 18.7568C12.6325 18.7723 12.6325 18.7878 12.6325 18.8034C12.6325 20.0597 13.3086 21.1908 14.3424 21.8073C14.2536 21.7984 14.1648 21.7855 14.0766 21.7687C13.9857 21.7513 13.8922 21.7832 13.8309 21.8525C13.7695 21.9218 13.7492 22.0184 13.7775 22.1065C14.1601 23.3012 15.1453 24.1799 16.3362 24.4477C15.3485 25.0664 14.2189 25.3905 13.0331 25.3905C12.7856 25.3905 12.5368 25.3759 12.2933 25.3471C12.1723 25.3327 12.0566 25.4042 12.0154 25.5192C11.9742 25.6343 12.0179 25.7627 12.1208 25.8286C13.6441 26.8054 15.4056 27.3216 17.2145 27.3216C20.7708 27.3216 22.9955 25.6447 24.2355 24.2378C25.7818 22.4837 26.6686 20.1618 26.6686 17.8676C26.6686 17.7718 26.6671 17.675 26.6642 17.5785C27.2742 17.1189 27.7995 16.5626 28.2269 15.9232C28.2918 15.8261 28.2848 15.6978 28.2096 15.6084C28.1345 15.519 28.0093 15.4901 27.9024 15.5374Z" fill="#fff"/></symbol>
<symbol id='svg-email' width="40" height="40" viewBox="0 0 40 40" fill="none" xmlns="http://www.w3.org/2000/svg">
<path d="M11.0957 16V26H28.0957V16L19.5957 21L11.0957 16Z" fill="white"/>
<path d="M11.0957 15L19.5957 20L28.0957 15V14H11.0957V15Z" fill="white"/>
<circle cx="20" cy="20" r="19.5" stroke="white"/>
</symbol>

</svg>