<svg width="121" height="120" viewBox="0 0 121 120" fill="none" xmlns="http://www.w3.org/2000/svg">
<g clip-path="url(#clip0_468_2739)">
<path d="M60.8388 0C27.7063 0 0.841797 26.8645 0.841797 60.0031C0.841797 93.1416 27.7063 120.006 60.8388 120.006C93.9773 120.006 120.842 93.1416 120.842 60.0031C120.842 26.8645 93.9773 0 60.8388 0Z" fill="#650BE8"/>
<path d="M67.1124 90.931C66.3372 92.2028 65.5257 93.85 63.6665 93.85C62.1404 93.85 60.8384 92.3421 60.154 91.0824L29.4198 35.1067C28.5901 33.623 27.8573 31.9152 27.718 30.2558C27.4758 27.4216 28.9535 25.6109 31.9754 25.5927C39.0125 25.5503 46.0556 25.5079 53.0867 25.6351C55.9754 25.6896 58.0466 26.8947 59.4939 29.8501C62.8247 36.651 65.229 42.2286 69.5954 48.4239C79.8785 60.1725 90.1071 48.5389 94.2797 43.682L67.1124 90.931Z" fill="white"/>
</g>
<defs>
<clipPath id="clip0_468_2739">
<rect width="120" height="120" fill="white" transform="translate(0.841797)"/>
</clipPath>
</defs>
</svg>
