<svg width="133" height="45" viewBox="0 0 133 45" fill="none" xmlns="http://www.w3.org/2000/svg">
<path fill-rule="evenodd" clip-rule="evenodd" d="M15.4945 41.9318H18.3028V26.7955H15.4945V41.9318ZM25.7888 41.7048H28.3041V32.1547L38.8913 41.9318V27.0225H36.3831V36.4094L25.7888 26.7955V41.7048ZM44.6333 38.0389C46.0023 39.115 47.6455 39.737 49.4072 39.737C51.1231 39.737 52.3268 39.1411 52.3268 37.8249C52.3268 36.6778 51.5591 36.2285 50.2147 35.7259L48.0382 34.9632C46.0316 34.2442 44.5056 33.1941 44.5056 30.7806C44.5056 28.1991 46.8157 26.7955 49.5783 26.7955C51.2707 26.7955 52.8132 27.2247 54.0181 27.9851V30.5453C52.7651 29.6111 51.3938 28.9678 49.6322 28.9678C48.1155 28.9678 46.9821 29.5389 46.9821 30.7297C46.9821 31.8058 47.6936 32.2363 48.9465 32.6691L51.3715 33.5276C53.7215 34.3613 54.7998 35.6538 54.7998 37.78C54.7998 40.4548 52.4674 41.9318 49.4072 41.9318C47.3959 41.9318 45.6858 41.3642 44.6333 40.6476V38.0389ZM61.3517 41.9318H64.1588V26.7955H61.3517V41.9318ZM77.3282 39.6413C80.4928 39.6413 82.1841 37.5931 82.1841 34.3601C82.1841 31.1034 80.4916 29.0624 77.3282 29.0624H74.1987V39.6413H77.3282ZM71.6436 26.7955H77.4219C81.8699 26.7955 84.7462 29.7518 84.7462 34.3601C84.7462 38.972 81.8699 41.9318 77.4219 41.9318H71.6436V26.7955ZM98.7852 26.7955V29.0624H91.9908V32.7046H98.0843V34.9454H91.9896V39.6413H98.7852V41.9318H89.4263V26.7955H98.7852ZM108.75 33.6494H111.536C113.185 33.6494 114.115 32.7365 114.115 31.3328C114.115 29.9292 113.185 29.0151 111.536 29.0151H108.75V33.6506V33.6494ZM108.75 35.7898V41.9318H106.271V26.7955H111.583C114.612 26.7955 116.571 28.3694 116.571 31.3328C116.571 33.867 115.484 35.3227 113.167 35.6963L118.437 41.9318H115.617L110.514 35.7909H108.751L108.75 35.7898ZM14.5135 11.8838C15.6117 11.4782 16.4673 10.2613 16.4673 8.58807C16.4673 5.79967 14.5135 4.35462 11.3876 4.35462H6.13672V19.9202H11.8752C15.0011 19.9202 16.9549 18.3735 16.9549 15.4586C16.9549 13.8101 15.9294 12.3651 14.5135 11.8838ZM8.60275 10.8952V6.6369H11.3641C13.0988 6.6369 14.0259 7.27073 14.0259 8.74061C14.0259 10.2105 13.0976 10.8952 11.3641 10.8952H8.60275ZM8.60275 13.0758H11.8259C13.5372 13.0758 14.4643 13.9366 14.4643 15.3569C14.4643 16.7511 13.536 17.6391 11.8271 17.6391H8.60392V13.0746L8.60275 13.0758ZM28.4119 20.1733C32.0019 20.1733 34.4199 17.9927 34.4199 13.7344V4.35462H31.88V13.4293C31.88 16.4211 30.6587 17.8165 28.4119 17.8165C26.165 17.8165 24.9449 16.4211 24.9449 13.4293V4.35462H22.405V13.7084C22.405 17.9927 24.8465 20.1733 28.4119 20.1733ZM40.3998 18.8039C41.45 19.5655 43.16 20.1733 45.1619 20.1733C48.2152 20.1733 50.5347 18.6005 50.5347 15.7625C50.5347 13.5062 49.4611 12.1368 47.1158 11.2499L44.699 10.337C43.453 9.88175 42.7451 9.4253 42.7451 8.28416C42.7451 7.01649 43.868 6.40867 45.3823 6.40867C47.1404 6.40867 48.5082 7.09217 49.7541 8.08195V5.36804C48.5574 4.55801 47.0185 4.10155 45.333 4.10155C42.574 4.10155 40.2779 5.59745 40.2779 8.33501C40.2779 10.8952 41.7922 12.0103 43.7941 12.7707L45.9683 13.5819C47.3115 14.114 48.0686 14.5965 48.0686 15.8133C48.0686 17.2075 46.872 17.8414 45.1619 17.8414C43.4038 17.8414 41.7676 17.1815 40.3998 16.0415V18.8039ZM59.61 4.35462H57.0713V19.9191H59.61V4.35462ZM66.8557 19.9001H69.303V9.77414L79.6032 20.1414V4.33097H77.1629V14.2843L66.8557 4.09091V19.9001ZM95.4741 4.35816V6.68893H88.8801V10.4352H94.7932V12.7399H88.8801V17.5682H95.4741V19.9238H86.3906V4.35816H95.4741ZM101.387 18.7933C102.437 19.5548 104.146 20.1627 106.149 20.1627C109.201 20.1627 111.522 18.5911 111.522 15.7518C111.522 13.4956 110.447 12.1274 108.103 11.2393L105.685 10.3276C104.439 9.87111 103.731 9.41465 103.731 8.27351C103.731 7.00584 104.854 6.39802 106.369 6.39802C108.127 6.39802 109.494 7.08271 110.74 8.0713V5.35858C109.544 4.54737 108.005 4.09091 106.319 4.09091C103.56 4.09091 101.264 5.58681 101.264 8.32436C101.264 10.8845 102.778 11.9997 104.78 12.76L106.955 13.5712C108.298 14.1034 109.055 14.5859 109.055 15.8027C109.055 17.1969 107.859 17.8307 106.148 17.8307C104.39 17.8307 102.754 17.172 101.387 16.0309V18.7933ZM116.725 18.7933C117.775 19.5548 119.485 20.1627 121.487 20.1627C124.54 20.1627 126.86 18.5911 126.86 15.7518C126.86 13.4956 125.785 12.1274 123.441 11.2393L121.023 10.3276C119.778 9.87111 119.069 9.41465 119.069 8.27351C119.069 7.00584 120.193 6.39802 121.706 6.39802C123.464 6.39802 124.833 7.08271 126.078 8.0713V5.35858C124.883 4.54737 123.344 4.09091 121.658 4.09091C118.898 4.09091 116.603 5.58681 116.603 8.32436C116.603 10.8845 118.117 11.9997 120.119 12.76L122.293 13.5712C123.637 14.1034 124.394 14.5859 124.394 15.8027C124.394 17.1969 123.197 17.8307 121.487 17.8307C119.729 17.8307 118.093 17.172 116.725 16.0309V18.7933Z" fill="white"/>
</svg>
