<svg width="231" height="45" viewBox="0 0 231 45" fill="none" xmlns="http://www.w3.org/2000/svg">
<path d="M7.12109 4.18604H23.0149C26.0423 4.18604 28.3129 4.91689 29.9948 6.13497C31.8449 7.59667 32.854 9.70801 32.854 12.3066C32.854 15.3112 31.5926 17.1789 29.0697 18.3158V18.4782C32.4335 19.5339 34.3677 22.4573 34.3677 25.9491C34.3677 29.2785 33.0222 31.8771 30.8357 33.5012C28.9856 34.8005 26.631 35.3689 23.4354 35.3689H7.12109V4.18604ZM21.4171 16.3668C23.099 16.3668 24.3605 15.4736 24.3605 13.6059C24.3605 11.8193 23.099 10.9261 21.333 10.9261H15.8669V16.2856H21.4171V16.3668ZM22.174 28.4664C24.1082 28.4664 25.5378 27.3296 25.5378 25.2994C25.5378 23.1069 24.0241 22.1324 22.174 22.1324H15.951V28.5477H22.174V28.4664Z" fill="white"/>
<path d="M35.7969 4.18604H44.1222V35.4501H35.7969V4.18604Z" fill="white"/>
<path d="M45.8027 24.325C45.8027 17.2601 50.512 12.5502 57.8282 12.5502C65.1445 12.5502 69.7697 17.3413 69.7697 24.325C69.7697 31.3898 65.1445 36.0998 57.8282 36.0998C50.512 36.0998 45.8027 31.3898 45.8027 24.325ZM61.4443 24.325C61.4443 20.4271 60.1829 17.991 57.6601 17.991C55.1372 17.991 53.9599 20.4271 53.9599 24.325C53.9599 28.2228 55.1372 30.7402 57.6601 30.7402C60.1829 30.659 61.4443 28.2228 61.4443 24.325Z" fill="white"/>
<path d="M70.6973 24.325C70.6973 17.2601 75.4065 12.5502 82.7228 12.5502C90.039 12.5502 94.5801 17.2601 94.5801 24.325C94.5801 31.3898 89.9549 36.0998 82.6387 36.0998C75.4066 36.0998 70.6973 31.3898 70.6973 24.325ZM86.3388 24.325C86.3388 20.4271 85.0774 17.991 82.5546 17.991C80.0317 17.991 78.8544 20.4271 78.8544 24.325C78.8544 28.2228 80.0317 30.7402 82.5546 30.7402C85.0774 30.659 86.3388 28.2228 86.3388 24.325Z" fill="white"/>
<path d="M96.2617 13.1186H103.998V16.4481H104.167C105.68 13.8495 107.783 12.469 111.146 12.469C114.09 12.469 116.276 13.8495 117.369 16.2856H117.538C119.388 13.3623 121.826 12.469 124.686 12.469C130.068 12.469 132.338 16.2856 132.338 21.4016V35.3689H124.265V22.7821C124.265 20.5083 123.508 19.0466 121.49 19.0466C119.472 19.0466 118.463 20.8331 118.463 23.2693V35.3689H110.39V22.7821C110.39 20.5083 109.633 19.0466 107.614 19.0466C105.596 19.0466 104.587 20.8331 104.587 23.2693V35.3689H96.2617V13.1186Z" fill="white"/>
<path d="M142.514 32.4455H142.43V35.3689H134.693V4.18604H142.766V15.3924H142.935C144.448 13.4435 146.551 12.3878 149.494 12.3878C155.296 12.3878 158.66 17.4225 158.66 24.1626C158.66 31.7147 155.044 36.0998 148.989 36.0998C146.467 36.0998 143.86 34.9629 142.514 32.4455ZM150.335 24.0814C150.335 20.5083 148.989 18.1534 146.551 18.1534C144.028 18.1534 142.514 20.5083 142.514 24.0814C142.514 27.6544 144.112 30.0093 146.551 30.0093C148.989 30.0093 150.335 27.7356 150.335 24.0814Z" fill="white"/>
<path d="M159.586 24.2438C159.586 17.2601 164.379 12.469 171.275 12.469C174.723 12.469 177.33 13.5247 179.348 15.3924C182.039 17.9097 183.216 21.8076 183.132 26.3551H167.659C167.995 29.1161 169.341 30.5778 171.78 30.5778C173.209 30.5778 174.471 29.9281 174.975 28.4664H182.796C181.45 33.5824 177.33 36.0997 171.527 36.0997C164.379 36.0185 159.586 31.3086 159.586 24.2438ZM167.659 21.8888H175.059C174.891 19.209 173.377 17.8285 171.443 17.8285C169.173 17.7473 167.911 19.2902 167.659 21.8888Z" fill="white"/>
<path d="M192.293 16.9353H192.462C194.143 13.8495 196.33 12.6314 199.105 12.6314C199.778 12.6314 200.198 12.7126 200.45 12.875V19.6963H200.282C195.489 18.8842 192.714 21.0768 192.714 26.1115V35.4501H184.557V13.1186H192.293V16.9353Z" fill="white"/>
<path d="M201.295 35.4501H209.116C209.453 36.4246 210.462 37.3178 212.396 37.3178C215.003 37.3178 215.928 35.7749 215.928 33.42V31.7959H215.76C214.498 33.2576 212.732 34.3132 210.209 34.3132C205.248 34.3132 200.875 30.7402 200.875 23.7565C200.875 17.3413 204.407 12.3878 209.789 12.3878C212.901 12.3878 214.751 13.6059 216.012 15.4736H216.18V13.0374H223.917V32.3643C223.917 35.9373 222.655 38.6983 220.721 40.3224C218.703 42.0277 215.844 42.7586 212.564 42.7586C206.341 42.8398 202.052 40.4036 201.295 35.4501ZM216.264 23.4317C216.264 20.6707 214.919 18.397 212.564 18.397C210.294 18.397 208.864 20.3459 208.864 23.4317C208.864 26.4363 210.294 28.5476 212.564 28.5476C214.835 28.5476 216.264 26.3551 216.264 23.4317Z" fill="white"/>
</svg>
