<svg width="150" height="45" viewBox="0 0 150 45" fill="none" xmlns="http://www.w3.org/2000/svg">
<path fill-rule="evenodd" clip-rule="evenodd" d="M26.4582 0.202677C22.4148 0.701701 17.9648 2.78853 14.1698 6.00951C13.4018 6.64463 11.798 8.20975 11.798 8.30048C11.798 8.34585 12.566 9.16243 13.5148 10.1151L15.2315 11.8617L14.5087 12.6783C11.8432 15.6951 10.0361 18.7573 8.95179 22.001C8.27412 24.0424 7.98047 25.721 7.98047 27.6037C7.98047 29.3049 8.20636 30.6885 8.7259 32.0268L8.9292 32.5712L13.9665 37.6295C18.1681 41.8485 19.1168 42.7558 19.6364 43.0961C20.7206 43.8219 21.9856 44.321 23.3861 44.6158C24.3123 44.82 26.4582 44.888 27.4747 44.7519C31.4956 44.2529 35.6519 42.3476 39.2888 39.308C40.2375 38.5141 41.8413 36.9944 41.8413 36.9037C41.8413 36.8583 41.0507 36.0417 40.102 35.0663L38.3626 33.2971L38.9048 32.73C40.2375 31.3237 41.8639 29.078 42.8126 27.3088C44.168 24.8363 45.049 22.1598 45.3426 19.71C45.4556 18.6439 45.3878 16.3756 45.2071 15.5137C44.8908 14.0619 44.3939 12.8824 43.6484 11.7483C43.2644 11.1585 42.4964 10.3646 38.2497 6.07756L33.2801 1.08731L32.7606 0.883165C32.0603 0.588287 30.6146 0.248043 29.7336 0.157312C28.8527 0.0665801 27.4747 0.0892623 26.4582 0.202677ZM30.7276 1.54097C31.089 1.6317 31.6763 1.7678 31.9925 1.88122C32.5798 2.08536 32.6024 2.08536 33.5286 3.01536C34.3418 3.83195 34.4547 3.94536 34.2514 3.92268C33.1672 3.71853 31.4278 3.67317 30.0725 3.85463C25.7354 4.39902 21.2628 6.59926 17.1516 10.2285C16.745 10.5915 16.3836 10.909 16.3158 10.9544C16.248 10.9998 15.8866 10.7049 14.8249 9.63877L13.4244 8.23243L14.328 7.43853C18.1003 4.12682 22.2567 2.03999 26.3227 1.45024C27.407 1.29146 29.824 1.35951 30.7276 1.54097ZM36.6459 8.75414C38.6337 9.04902 40.373 9.91097 41.6606 11.2039C42.9256 12.4741 43.7388 14.1073 44.1228 16.1488C44.2809 17.0561 44.2809 19.0976 44.1228 20.1637C43.6033 23.4527 42.0898 26.8324 39.7405 29.9173C39.1984 30.6432 37.9108 32.1629 37.7075 32.3217C37.5946 32.4124 37.4591 32.299 36.2844 31.1195C35.5616 30.3937 34.9743 29.7812 34.9743 29.7585C34.9743 29.7358 35.1776 29.4863 35.4261 29.2141C39.5147 24.6776 41.4347 19.0068 40.0794 15.491C39.5372 14.13 38.4078 13.1093 36.9395 12.6556C36.1941 12.4288 34.8839 12.3154 33.9126 12.4288C32.4217 12.5649 30.592 13.1546 28.8301 14.0166C27.0681 14.8785 25.4643 15.9673 23.9057 17.3736L23.2054 17.9861L21.8727 16.6478L20.5399 15.3095L21.1047 14.7878C24.5608 11.5441 29.1463 9.23048 33.0768 8.70877C33.8674 8.64073 35.9004 8.64072 36.6459 8.75414ZM17.9648 16.5797C17.4678 17.1468 16.8353 17.9407 16.5191 18.349C12.7693 23.3619 11.0526 28.8058 11.7528 33.5012L11.798 33.7961L10.8719 32.8888C9.99089 32.0268 9.94571 31.9588 9.765 31.4144C8.00306 26.3334 10.2168 19.3244 15.4348 13.4495L16.0447 12.769L17.4452 14.1754L18.8458 15.5817L17.9648 16.5797ZM35.6068 13.6763L35.7875 13.7217L35.7423 14.6744C35.6971 15.8085 35.539 16.7385 35.3131 17.5324C34.5903 19.9141 33.2575 22.2958 31.3149 24.5415L30.5694 25.4034L29.1463 23.9744L27.7232 22.5454L28.3783 21.8195C29.7788 20.2771 31.0664 18.4851 31.857 16.9654C32.2862 16.1488 32.8509 14.7651 33.009 14.13C33.0994 13.7444 33.0994 13.7444 33.4382 13.699C33.6189 13.6763 33.8222 13.6537 33.89 13.631C34.0707 13.631 35.4486 13.631 35.6068 13.6763ZM31.5633 14.6744C31.2471 15.559 30.5468 16.92 29.8692 17.9407C29.1237 19.0749 28.6042 19.7554 27.5651 20.9349L26.8422 21.7741L25.4191 20.3451L23.996 18.9161L24.4704 18.4851C25.9387 17.1695 27.6555 15.99 29.2367 15.1734C30.0951 14.7424 31.4956 14.1754 31.6989 14.1527C31.7215 14.1527 31.6763 14.3795 31.5633 14.6744ZM53.2036 15.5363C53.1358 15.6044 53.1132 17.4871 53.1132 24.3827C53.1132 32.7754 53.1132 33.1383 53.2487 33.2517C53.3617 33.3651 53.7231 33.3651 56.7726 33.3651C58.6249 33.3651 60.6353 33.3198 61.2226 33.2971C63.5945 33.1383 65.4242 32.3671 66.8247 30.9607C67.9316 29.8493 68.6318 28.3068 68.9932 26.2654C69.1514 25.2673 69.1514 23.1805 68.9932 22.2051C68.4059 18.9161 66.5311 16.7839 63.5267 15.9219C62.0584 15.5137 61.9455 15.491 57.4729 15.4683C54.1523 15.4683 53.2713 15.4683 53.2036 15.5363ZM135.45 15.8312C135.382 15.8993 135.36 16.4663 135.36 17.918V19.9141H134.501C133.937 19.9141 133.62 19.9368 133.552 20.0049C133.44 20.1183 133.44 22.4773 133.552 22.6134C133.62 22.6815 133.937 22.7041 134.501 22.7041H135.36L135.382 26.7417C135.405 30.6885 135.405 30.8019 135.563 31.2556C135.992 32.5032 136.873 33.1837 138.296 33.3651C139.267 33.4785 140.645 33.4332 141.594 33.2517L141.797 33.2063L141.775 31.5505L141.752 29.8946L140.849 29.8493C139.877 29.8039 139.719 29.7585 139.606 29.5544C139.561 29.4637 139.539 28.1027 139.539 26.0839V22.7495L140.691 22.7268L141.843 22.7041V21.3205V19.9368L140.691 19.9141L139.539 19.8915V17.9407C139.539 16.7385 139.516 15.9446 139.471 15.8539C139.403 15.7178 139.29 15.7178 137.483 15.7178C136.06 15.7632 135.518 15.7858 135.45 15.8312ZM61.5163 19.6646C62.8942 20.0276 63.7978 21.0029 64.1592 22.4319C64.4303 23.5207 64.4303 25.3354 64.1366 26.4695C63.843 27.581 63.1653 28.4656 62.2617 28.8966C61.4711 29.2822 60.9968 29.3502 59.3703 29.3956L57.9021 29.441V24.4507V19.4605L59.4833 19.5058C60.6353 19.5285 61.2001 19.5739 61.5163 19.6646ZM75.3182 19.7554C73.0593 20.1637 71.3199 21.6607 70.5519 23.8383C69.5354 26.6963 70.0323 29.9627 71.7491 31.8C72.6527 32.7527 73.511 33.2517 74.8212 33.5919C77.3286 34.2271 80.0167 33.5693 81.8012 31.8907C82.2304 31.5051 83.3372 30.0988 83.3372 29.9627C83.3372 29.8039 83.021 29.5997 81.7334 28.9419C80.9428 28.5336 80.2877 28.1934 80.2651 28.1934C80.2425 28.1934 80.107 28.3976 79.9715 28.6471C79.6552 29.2595 79.0002 29.94 78.5258 30.1895C77.1027 30.8927 75.4311 30.4844 74.7083 29.2595C74.505 28.8966 74.3017 28.2615 74.3017 27.9212V27.6717H78.8195C82.2304 27.6717 83.3372 27.649 83.405 27.581C83.5179 27.4676 83.518 26.5602 83.3824 25.6529C83.021 23.2258 82.0045 21.4793 80.3781 20.5039C79.8359 20.1863 78.7969 19.8234 78.1192 19.71C77.4415 19.5966 75.9958 19.6193 75.3182 19.7554ZM90.1591 19.6646C89.5266 19.7554 89.0071 19.8688 88.6005 20.0049C86.319 20.7307 84.8055 22.6134 84.3312 25.29C84.1504 26.3107 84.2182 27.9439 84.4667 28.9193C84.8055 30.2349 85.3025 31.0968 86.206 31.9588C86.9967 32.7073 87.9228 33.229 89.1652 33.5693C89.5266 33.6827 89.888 33.7054 90.8142 33.7054C91.8759 33.7054 92.034 33.6827 92.6213 33.5012C93.7959 33.1383 94.6995 32.5939 95.5127 31.7319C96.0548 31.1649 96.6647 30.3256 96.6647 30.1441C96.6647 30.0761 96.5518 29.9627 96.4388 29.8719C95.9645 29.5771 93.7733 28.4883 93.6604 28.4883C93.5926 28.4883 93.4797 28.6471 93.3667 28.8739C93.0957 29.4637 92.7342 29.8493 92.1695 30.1215C91.7403 30.3256 91.6048 30.371 91.1304 30.3483C90.4979 30.3483 90.0913 30.1895 89.5718 29.7358C88.2165 28.5337 88.1261 25.1993 89.4137 23.6795C90.2269 22.7268 91.7403 22.7268 92.7117 23.6568C92.8698 23.8156 93.0957 24.1105 93.2086 24.3146C93.3216 24.5188 93.4571 24.7002 93.5249 24.7002C93.683 24.7456 96.4614 23.1351 96.5066 22.9763C96.5292 22.8402 96.2355 22.3866 95.8063 21.8422C95.1061 20.9802 93.7282 20.141 92.5309 19.8688C91.921 19.71 90.6109 19.6193 90.1591 19.6646ZM126.392 19.8234C125.646 19.9595 124.969 20.2317 124.427 20.64L123.997 20.9576L123.975 20.5039L123.952 20.0502L122.213 20.0276C120.677 20.0049 120.451 20.0276 120.338 20.141C120.202 20.2544 120.202 20.5946 120.202 28.9873C120.202 35.6788 120.225 37.7202 120.293 37.7883C120.428 37.9244 124.223 37.9244 124.336 37.7883C124.404 37.7202 124.427 37.0397 124.427 35.2024V32.7073L125.127 33.0702C126.076 33.5466 126.663 33.66 127.77 33.6146C129.057 33.5466 129.825 33.2971 130.661 32.6619C131.836 31.7773 132.604 30.4163 133.033 28.5337C133.259 27.5356 133.259 25.789 133.033 24.7229C132.739 23.3166 132.265 22.3639 131.407 21.4566C130.142 20.0502 128.289 19.4832 126.392 19.8234ZM24.5156 21.1617C25.7354 22.3866 25.8032 22.4773 25.7128 22.6134C25.645 22.6815 25.3514 23.0217 25.0351 23.3846C23.7701 24.8363 22.5955 26.6056 21.8049 28.2388C21.2402 29.3956 20.9014 30.3483 20.5625 31.6412C20.1333 33.3424 20.1333 35.2251 20.6077 36.5407C21.4887 39.0358 23.8153 40.2154 27.0681 39.8297C30.208 39.4441 33.8222 37.6295 36.9169 34.8849L37.572 34.2951L38.9048 35.6334L40.2375 36.9717L39.6728 37.4934C36.7814 40.1927 32.9187 42.3929 29.5755 43.2095C28.2202 43.5497 27.2714 43.6632 25.9839 43.6632C24.2671 43.6632 23.0021 43.4363 21.6694 42.8466C19.9526 42.098 18.3714 40.6237 17.5582 38.9905C16.5417 36.9717 16.248 34.4766 16.6998 31.7773C17.3323 28.0119 19.4331 23.9744 22.5278 20.5039C22.844 20.141 23.1377 19.8461 23.1603 19.8461C23.1828 19.8461 23.7927 20.4358 24.5156 21.1617ZM104.887 19.9368C104.006 20.0729 102.899 20.4812 102.176 20.9576L101.951 21.1163V20.64C101.951 20.3678 101.905 20.141 101.86 20.0729C101.792 20.0049 101.273 19.9822 99.9401 19.9822C98.2685 19.9822 98.0878 19.9822 97.9975 20.1183C97.8845 20.2317 97.8845 20.7988 97.8845 26.6963C97.8845 32.8434 97.8845 33.1383 98.0201 33.2517C98.133 33.3651 98.3815 33.3651 100.008 33.3651C101.454 33.3651 101.883 33.3424 101.951 33.2744C101.996 33.2063 102.041 31.868 102.041 29.1234C102.063 25.3127 102.063 25.0405 102.199 24.791C102.47 24.2466 102.944 24.0198 104.322 23.7929C104.842 23.7022 105.361 23.6115 105.474 23.5888L105.678 23.5434V21.7741C105.678 20.0049 105.655 19.8007 105.429 19.8461C105.339 19.8688 105.113 19.8915 104.887 19.9368ZM106.739 20.0956C106.694 20.1637 106.672 20.2771 106.694 20.3905C106.717 20.4812 107.327 22.4773 108.05 24.791C110.941 34.1363 110.783 33.5919 110.58 33.9549C110.399 34.3178 110.083 34.3858 108.953 34.3858C108.253 34.3858 107.891 34.4085 107.846 34.4766C107.778 34.5446 107.756 34.9983 107.756 36.1097C107.756 37.2212 107.778 37.6749 107.846 37.7429C107.959 37.8563 110.828 37.8563 111.573 37.7656C112.816 37.5841 113.832 36.6995 114.42 35.2932C114.555 34.9983 115.707 31.4824 116.995 27.4902C118.96 21.4566 119.344 20.209 119.254 20.1183C119.186 20.0276 118.847 20.0049 117.063 20.0049H114.962L114.894 20.3224C114.849 20.5039 114.42 22.3866 113.923 24.5415C113.426 26.6963 113.019 28.4883 112.974 28.511C112.951 28.5336 112.477 26.6283 111.957 24.2919L110.986 20.0049H108.885C107.146 20.0049 106.807 20.0049 106.739 20.0956ZM77.8933 22.931C78.571 23.2485 79.0228 23.861 79.1583 24.6095L79.2035 24.8817H76.7864H74.3694L74.4146 24.6549C74.505 24.2466 74.889 23.5888 75.2052 23.3166C75.7473 22.8402 76.2217 22.6815 76.9671 22.7268C77.3286 22.7495 77.5996 22.8176 77.8933 22.931ZM127.747 23.0444C128.38 23.3846 128.854 24.0878 129.08 25.0405C129.238 25.7437 129.238 27.4222 129.057 28.1254C128.899 28.7378 128.583 29.3729 128.244 29.8039C127.702 30.4617 126.64 30.6432 125.782 30.2122C124.788 29.7132 124.314 28.6017 124.314 26.7417C124.314 25.0178 124.765 23.7929 125.601 23.1805C126.256 22.7268 127.047 22.6815 127.747 23.0444ZM28.943 26.719C27.0907 28.4656 24.7189 30.0307 22.7536 30.8246C22.347 30.9834 21.9856 31.1195 21.963 31.1195C21.9404 31.1195 22.0308 30.87 22.1437 30.5524C23.0021 28.1707 24.493 25.7436 26.2775 23.8156L26.7067 23.3619L28.1298 24.7683L29.5529 26.1746L28.943 26.719ZM31.7892 28.4883L33.1672 29.8719L32.738 30.2802C30.4791 32.4124 27.0004 34.3405 24.5382 34.8622C23.9283 34.9983 22.5729 35.1344 21.9179 35.1344H21.4887V34.091C21.4887 33.5239 21.5113 32.9115 21.5338 32.7754L21.579 32.5032L22.46 32.2083C24.6963 31.4824 27.5425 29.6905 29.6433 27.6944C29.9821 27.3768 30.2984 27.1046 30.3435 27.1046C30.3887 27.1046 31.0438 27.7171 31.7892 28.4883Z" fill="white"/>
</svg>
