<svg width="187" height="44" viewBox="0 0 187 44" fill="none" xmlns="http://www.w3.org/2000/svg">
<g clip-path="url(#clip0_472_1610)">
<path d="M89.7431 8.16431H89.3138C86.0315 8.16431 82.7353 8.16431 79.4529 8.15184C78.6773 8.15184 78.0818 7.6034 78.0679 6.89292C78.0541 5.02323 78.0679 3.15354 78.0679 1.29632C78.0679 0.5983 78.6496 0.0498584 79.4252 0H98.413C98.9531 0 99.424 0.137111 99.7287 0.548442C99.8672 0.747875 99.9226 0.997167 100.006 1.23399C100.033 1.29632 100.006 1.38357 100.006 1.44589V42.4918C100.006 43.2397 99.5902 43.7632 98.87 43.9003C98.7315 43.9252 98.5792 43.9252 98.4268 43.9252H79.6329C78.6358 43.9252 78.0541 43.4017 78.0541 42.5167V37.1694C78.0541 36.2969 78.6219 35.7734 79.5914 35.7734H89.7293C89.7431 26.5745 89.7431 17.3881 89.7431 8.16431ZM47.2665 8.16431V35.7734H47.6958C50.895 35.7734 54.0805 35.7983 57.2797 35.7609C58.4431 35.7484 59.0109 36.4589 58.9832 37.2941C58.9555 39.0266 58.9832 40.7592 58.9694 42.4918C58.9694 43.2397 58.54 43.7632 57.8337 43.9003C57.6952 43.9252 57.5429 43.9377 57.3905 43.9377H38.5966C37.5856 43.9377 37.0039 43.4266 37.0039 42.5167V1.44589C37.0039 0.523513 37.5856 0 38.5966 0H57.3905C58.3738 0 58.9694 0.523513 58.9832 1.4085C58.9971 3.2034 58.9832 4.9983 58.9832 6.7932C58.9832 7.64079 58.2215 8.17677 57.5013 8.16431C54.2328 8.13938 50.9781 8.16431 47.7096 8.16431H47.2665Z" fill="white"/>
<path d="M75.2567 22.8975V28.1824C75.2567 28.7683 75.0628 28.9303 74.4119 28.9303H70.534C70.0077 28.9303 69.7723 28.7184 69.7723 28.2448V15.3314C69.7723 14.8329 69.9939 14.6334 70.5479 14.6334H73.941C74.4119 14.6334 74.772 14.783 75.0628 15.1445C76.5863 17.0391 78.1097 18.9212 79.6332 20.8034C79.7024 20.8907 79.7717 20.9654 79.8963 21.115C79.9102 20.9405 79.9102 20.8283 79.9102 20.7286V15.4436C79.9102 14.8204 80.1041 14.6459 80.7965 14.6459H84.5359C85.2007 14.6459 85.4223 14.8453 85.4223 15.4561V28.145C85.4223 28.7558 85.2146 28.9428 84.5359 28.9428C83.4557 28.9428 82.3615 28.9303 81.2813 28.9428C80.7827 28.9552 80.4226 28.7807 80.1318 28.4317C78.5668 26.6368 77.0018 24.8419 75.4368 23.0595C75.3952 23.0096 75.3537 22.9847 75.2567 22.8975ZM55.9781 18.8465H52.0725C51.4354 18.8465 51.2277 18.6595 51.2277 18.0737V15.3314C51.2277 14.8329 51.4631 14.621 52.0033 14.621H66.1575C66.6838 14.621 66.9054 14.8329 66.9193 15.3065V18.136C66.9193 18.6346 66.6838 18.834 66.1298 18.834H62.1965V24.7048H65.8113C65.9775 24.7048 66.1298 24.7173 66.296 24.7297C66.7115 24.7671 66.9054 24.9292 66.9193 25.2907C66.9331 26.3003 66.9331 27.2975 66.9193 28.3071C66.9193 28.7184 66.6561 28.9054 66.1437 28.9054H52.0309C51.4908 28.9054 51.2554 28.6935 51.2554 28.2074V25.4028C51.2554 24.8918 51.4908 24.6924 52.0587 24.6924H56.0058C55.9781 22.7479 55.9781 20.8159 55.9781 18.8465ZM3.25269 8.57564V16.6652C3.37734 16.6028 3.47428 16.553 3.55738 16.5031C6.75664 14.4963 13.3906 15.2193 14.6509 20.7535C15.0802 22.6108 14.9279 24.4431 13.8892 26.1258C12.7674 27.9456 10.9669 28.9677 8.73713 29.3666C6.05031 29.8402 3.54353 29.3292 1.1614 28.1949C0.925959 28.0827 0.925959 27.9331 0.925959 27.7462V19.9932C0.925959 16.553 0.925959 13.1003 0.912109 9.66006C0.912109 9.38584 0.981357 9.26119 1.28605 9.17394C1.95083 9.0119 2.57406 8.78754 3.25269 8.57564ZM3.25269 22.8227C3.25269 24.1065 3.26654 25.3904 3.25269 26.6742C3.25269 26.9111 3.32194 27.0232 3.57123 27.098C5.05314 27.5592 6.56274 27.7711 8.12775 27.5592C10.3021 27.2476 11.784 26.0884 12.2965 24.2312C12.5181 23.421 12.5596 22.5858 12.4627 21.7632C12.2826 20.3048 11.6594 19.0459 10.2744 18.1858C9.08337 17.4504 7.75381 17.3258 6.36885 17.5127C5.31628 17.6499 4.33296 17.9365 3.48813 18.5598C3.32194 18.6844 3.25269 18.8091 3.25269 19.0085V22.8227ZM144.754 15.6306H147.011V17.064C147.233 16.8895 147.413 16.7399 147.593 16.6028C149.823 14.8952 152.953 14.6459 155.321 16.0045C156.346 16.5904 157.149 17.3756 157.634 18.3728C158.756 20.6538 158.797 22.9722 157.634 25.2408C156.263 27.8833 153.271 29.2669 150.072 28.8431C149.006 28.706 148.009 28.4442 147.039 27.8833V33.3552C147.039 33.6295 146.97 33.7167 146.651 33.7043C146.028 33.6793 145.405 33.7043 144.768 33.7043C144.754 27.6714 144.754 21.6635 144.754 15.6306ZM147.011 22.5235C147.011 23.583 147.025 24.6425 146.998 25.6895C146.998 25.9263 147.081 26.0635 147.302 26.1881C148.549 26.8986 149.934 27.1977 151.388 27.123C153.327 27.0232 154.753 26.1632 155.515 24.5428C156.249 22.9847 156.291 21.3518 155.723 19.7439C155.335 18.647 154.518 17.8493 153.313 17.413C151.222 16.6527 148.826 17.2136 147.233 18.8215C147.108 18.9462 147.025 19.1456 147.025 19.3076C147.011 20.3921 147.011 21.464 147.011 22.5235ZM31.6167 22.5858H19.2767C19.2905 23.6453 19.4844 24.6425 20.0938 25.5524C20.9663 26.8238 22.282 27.4595 23.8747 27.6215C26.0353 27.8459 28.085 27.4346 30.024 26.5496C30.107 26.5122 30.1901 26.4748 30.2871 26.4374V28.4816C28.8883 29.0425 27.4202 29.379 25.8829 29.4912C24.4841 29.5909 23.0992 29.5411 21.7557 29.1173C19.0828 28.2946 17.5178 26.587 17.0192 24.1065C16.756 22.8227 16.7837 21.5388 17.1715 20.2799C17.961 17.7246 19.8722 16.2289 22.7252 15.668C24.3179 15.3564 25.8968 15.3813 27.4064 16.0045C29.5254 16.8895 30.7303 18.4476 31.2566 20.4419C31.4505 21.1275 31.5059 21.838 31.6167 22.5858ZM29.1099 21.0028C29.1237 20.9654 29.1376 20.953 29.1376 20.928V20.8408C28.9714 19.5819 28.362 18.5473 27.1294 17.8742C25.4259 16.9518 22.9191 17.1139 21.2156 18.2357C20.1769 18.9212 19.5952 19.8561 19.3736 21.0028H29.1099ZM179.059 15.1195C181.358 15.1694 183.353 15.7677 184.904 17.2635C185.943 18.2606 186.51 19.4697 186.718 20.8283C186.968 22.4986 186.774 24.119 185.832 25.6147C184.752 27.3473 183.048 28.332 180.915 28.7433C179.142 29.0799 177.397 28.9552 175.735 28.3071C173.159 27.285 171.788 25.4652 171.47 22.9847C171.276 21.489 171.47 20.0181 172.245 18.6595C173.381 16.6776 175.265 15.6181 177.661 15.2317C177.841 15.2068 178.021 15.1819 178.215 15.1694C178.519 15.1569 178.824 15.1445 179.059 15.1195ZM178.672 16.902C177.771 16.902 176.566 17.2635 175.528 18.0487C173.312 19.7314 173.229 23.1966 174.628 25.0414C175.902 26.7365 177.758 27.3348 179.946 27.0856C181.857 26.8612 183.256 25.9513 184.045 24.3433C184.502 23.396 184.599 22.3864 184.502 21.3643C184.239 18.7218 182.065 16.902 178.672 16.902ZM135.405 25.7518C137.026 22.3241 138.605 18.9711 140.184 15.6306H142.469C142.303 16.0045 142.136 16.366 141.97 16.715C139.38 22.1496 136.777 27.5717 134.214 33.0187C133.951 33.5796 133.66 33.804 132.996 33.7292C132.539 33.6793 132.082 33.7167 131.569 33.7167C131.818 33.1807 132.054 32.6946 132.289 32.2085C132.885 30.962 133.494 29.728 134.076 28.4691C134.131 28.3445 134.131 28.1575 134.076 28.0329L128.301 15.8799C128.259 15.8051 128.231 15.7303 128.19 15.6181C129.007 15.6181 129.783 15.6057 130.558 15.6306C130.641 15.6306 130.738 15.7677 130.78 15.855C131.929 18.298 133.065 20.7411 134.201 23.1841C134.588 24.0068 134.976 24.8295 135.405 25.7518ZM116.639 17.6499C115.642 17.4504 114.687 17.2136 113.717 17.089C111.806 16.8272 110.005 17.1263 108.593 18.3977C106.903 19.906 106.571 21.7756 107.277 23.745C107.956 25.6521 109.521 26.7116 111.695 27.0108C113.274 27.2227 114.783 26.9235 116.279 26.4623C116.362 26.4374 116.445 26.4125 116.542 26.3751H116.639V28.2323C116.639 28.2822 116.57 28.3569 116.501 28.3819C113.454 29.1796 110.462 29.2918 107.679 27.6589C105.698 26.4997 104.77 24.7671 104.604 22.6856C104.479 21.1773 104.729 19.719 105.601 18.3977C106.737 16.6901 108.468 15.7303 110.587 15.3314C112.554 14.9575 114.506 15.132 116.418 15.6929C116.515 15.7178 116.625 15.855 116.625 15.9422C116.653 16.5156 116.639 17.1014 116.639 17.6499ZM162.468 17.3507H159.919C160.002 17.1762 160.03 17.0266 160.127 16.9144C161.54 15.4436 162.952 13.9853 164.379 12.5394C164.462 12.4521 164.6 12.4147 164.711 12.3524C164.739 12.4646 164.808 12.5768 164.808 12.689C164.822 13.5365 164.808 14.3841 164.808 15.2442V15.6057H169.586V17.3507H164.808V24.7671C164.808 25.1037 164.836 25.4527 164.891 25.7892C165.03 26.4748 165.404 26.7365 166.193 26.7241C167.246 26.6992 168.243 26.4997 169.226 26.1756C169.351 26.1382 169.489 26.0884 169.656 26.0385C169.656 26.6244 169.656 27.1728 169.642 27.7337C169.642 27.796 169.559 27.8833 169.489 27.9082C168.021 28.5065 166.498 28.8181 164.891 28.5938C163.797 28.4442 163.063 27.8459 162.772 26.8986C162.592 26.3003 162.495 25.6521 162.495 25.0289C162.468 22.5983 162.481 20.1802 162.481 17.7496C162.468 17.6249 162.468 17.5127 162.468 17.3507ZM119.672 15.6306H121.944V18.6096C121.971 18.6221 121.999 18.647 122.027 18.6595C123.01 16.3785 124.949 15.3688 127.553 15.2068V17.438C127.054 17.5003 126.528 17.5252 126.029 17.6249C123.744 18.0861 122.553 19.4572 122.124 21.4391C121.999 22.0249 121.958 22.6357 121.944 23.234C121.916 24.8295 121.93 26.4249 121.93 28.0204V28.4068H119.658C119.672 24.1688 119.672 19.906 119.672 15.6306Z" fill="white"/>
</g>
<defs>
<clipPath id="clip0_472_1610">
<rect width="186" height="44" fill="white" transform="translate(0.923828)"/>
</clipPath>
</defs>
</svg>
